<svg width="32" height="32" viewBox="0 0 32 32" fill="none" xmlns="http://www.w3.org/2000/svg">
<path d="M17.6667 27.6239C15.8611 27.6239 14.1901 27.1785 12.6536 26.2877C11.1172 25.3969 9.90191 24.1861 9.00781 22.6552C8.11371 21.1244 7.66666 19.4595 7.66666 17.6606C7.66666 15.827 8.31771 14.2616 9.61979 12.9643C10.9219 11.667 12.4931 11.0183 14.3333 11.0183C14.9236 11.0183 15.6007 11.1826 16.3646 11.5113C17.1285 11.8399 17.8142 12.3373 18.4219 13.0032C19.0295 13.6692 19.3333 14.3913 19.3333 15.1697C19.3333 16.1903 19.2378 16.9168 19.0469 17.3492C19.6198 17.0897 20.0885 16.6876 20.4531 16.1427C20.8177 15.5978 21 14.9967 21 14.3394C21 12.5059 20.349 10.9405 19.0469 9.64316C17.7448 8.34585 16.1736 7.69719 14.3333 7.69719C12.8229 7.69719 11.4297 8.06909 10.1536 8.81288C8.8776 9.55667 7.86632 10.5643 7.11979 11.8356C6.37326 13.107 6 14.4951 6 16C6 18.1622 6.32552 20.1341 6.97656 21.9158C7.6276 23.6974 8.41319 25.0466 9.33333 25.9634C6.92014 25.1677 5.20573 23.9655 4.1901 22.3568C3.17448 20.7482 2.66666 18.6292 2.66666 16C2.66666 14.4259 2.97482 12.921 3.59114 11.4853C4.20746 10.0497 5.03646 8.81288 6.07812 7.77503C7.11979 6.73718 8.36111 5.91122 9.80208 5.29716C11.2431 4.6831 12.7535 4.37607 14.3333 4.37607C16.1389 4.37607 17.8099 4.82148 19.3464 5.7123C20.8828 6.60312 22.0981 7.81395 22.9922 9.34478C23.8863 10.8756 24.3333 12.5405 24.3333 14.3394C24.3333 16.173 23.6823 17.7384 22.3802 19.0357C21.0781 20.333 19.5069 20.9817 17.6667 20.9817C17.0764 20.9817 16.3993 20.8174 15.6354 20.4887C14.8715 20.1601 14.1858 19.6627 13.5781 18.9968C12.9705 18.3308 12.6667 17.6087 12.6667 16.8303C12.6667 15.8097 12.7622 15.0832 12.9531 14.6508C12.3802 14.9103 11.9115 15.3124 11.5469 15.8573C11.1823 16.4022 11 17.0033 11 17.6606C11 19.4941 11.651 21.0595 12.9531 22.3568C14.2552 23.6542 15.8264 24.3028 17.6667 24.3028C19.1771 24.3028 20.5703 23.9309 21.8464 23.1871C23.1224 22.4433 24.1337 21.4357 24.8802 20.1644C25.6267 18.893 26 17.5049 26 16C26 13.8551 25.6745 11.8875 25.0234 10.0972C24.3724 8.30693 23.5868 6.9534 22.6667 6.03663C25.0799 6.83232 26.7943 8.03449 27.8099 9.64316C28.8255 11.2518 29.3333 13.3708 29.3333 16C29.3333 17.5741 29.0252 19.079 28.4089 20.5147C27.7925 21.9503 26.9635 23.1871 25.9219 24.225C24.8802 25.2628 23.6389 26.0888 22.1979 26.7028C20.7569 27.3169 19.2465 27.6239 17.6667 27.6239Z" fill="white"/>
</svg>
