<svg width="32" height="32" viewBox="0 0 32 32" fill="none" xmlns="http://www.w3.org/2000/svg">
<path d="M28.4714 12.1694L20.4773 10.9876L16.9037 3.61774C16.8061 3.41596 16.6455 3.25261 16.4472 3.15332C15.9497 2.9035 15.3452 3.11168 15.0964 3.61774L11.5228 10.9876L3.52869 12.1694C3.3083 12.2014 3.10679 12.3071 2.95251 12.4673C2.766 12.6623 2.66322 12.9247 2.66676 13.1967C2.6703 13.4688 2.77988 13.7283 2.9714 13.9182L8.75527 19.6545L7.38881 27.7546C7.35676 27.943 7.37726 28.1368 7.44797 28.314C7.51869 28.4912 7.63679 28.6447 7.78889 28.757C7.94098 28.8694 8.12099 28.9362 8.30849 28.9498C8.496 28.9634 8.6835 28.9233 8.84973 28.834L16.0001 25.0098L23.1504 28.834C23.3456 28.9397 23.5723 28.9749 23.7896 28.9365C24.3374 28.8404 24.7058 28.3119 24.6113 27.7546L23.2449 19.6545L29.0287 13.9182C29.1862 13.7613 29.2901 13.5563 29.3216 13.3321C29.4066 12.7716 29.0224 12.2527 28.4714 12.1694Z" fill="white"/>
</svg>
